<?xml version="1.0" encoding="utf-8"?>
<!-- Generator: Adobe Illustrator 28.3.0, SVG Export Plug-In . SVG Version: 6.00 Build 0)  -->
<svg version="1.1" id="Capa_1" xmlns="http://www.w3.org/2000/svg" xmlns:xlink="http://www.w3.org/1999/xlink" x="0px" y="0px"
	 viewBox="0 0 595.28 841.89" style="enable-background:new 0 0 595.28 841.89;" xml:space="preserve">
<style type="text/css">
	.st0{fill:url(#SVGID_1_);}
	.st1{fill:url(#SVGID_00000181079946519401012390000018322241743952870823_);}
	.st2{fill:url(#SVGID_00000117644741065677182310000010223164692540911795_);}
	.st3{fill:url(#SVGID_00000165935499731267617390000008209259655362847930_);}
	.st4{fill:#983A8E;}
</style>
<g>
	<g>
		<linearGradient id="SVGID_1_" gradientUnits="userSpaceOnUse" x1="86.4629" y1="463.4543" x2="518.1397" y2="463.4543">
			<stop  offset="0" style="stop-color:#E6321F"/>
			<stop  offset="0.0524" style="stop-color:#C93730"/>
			<stop  offset="0.1069" style="stop-color:#B3393C"/>
			<stop  offset="0.1627" style="stop-color:#A53A42"/>
			<stop  offset="0.2199" style="stop-color:#9C3A45"/>
			<stop  offset="0.2809" style="stop-color:#993A46"/>
			<stop  offset="0.6685" style="stop-color:#944996"/>
			<stop  offset="0.8876" style="stop-color:#5F4998"/>
			<stop  offset="1" style="stop-color:#384798"/>
		</linearGradient>
		<path class="st0" d="M302.04,247.52c55.94,0,111.89,0.12,167.83-0.08c16.35-0.06,30.05,4.76,39.93,18.36
			c6.02,8.29,8.13,17.74,8.13,27.78c0.05,69.26,0.1,138.53,0.12,207.79c0.01,42.62-0.33,85.25,0.08,127.87
			c0.27,28.24-22.68,50.34-50.04,50.21c-110.72-0.51-221.45-0.65-332.17,0.01c-28.3,0.17-44.68-20.22-48.77-39.29
			c-0.55-2.57-0.69-5.28-0.69-7.92c0.01-113.22,0.01-226.44,0.13-339.66c0.02-22.63,13.76-39.57,35.71-44.13
			c4.82-1,9.93-0.87,14.91-0.88c54.95-0.06,109.89-0.03,164.84-0.03C302.04,247.54,302.04,247.53,302.04,247.52z M276.82,343.68
			c63.12,0,125.66,0,188.33,0c0-14.5,0-28.56,0-43.03c-108.94,0-217.55,0-326.13,0c0,109.11,0,217.78,0,326.69
			c46.05,0,91.7,0,137.84,0c0-62.61,0-124.81,0-187.22c17.72,0,34.94,0,52.95,0c0,62.6,0,124.91,0,187.22c14,0,27.21,0,40.88,0
			c0-62.63,0-124.83,0-187.26c18.01,0,35.54,0,53.64,0c0,62.65,0,124.98,0,187.28c13.95,0,27.33,0,40.69,0c0-76.9,0-153.4,0-230.52
			c-62.92,0-125.42,0-188.2,0C276.82,378.98,276.82,361.75,276.82,343.68z"/>
		
			<linearGradient id="SVGID_00000015333935982870211240000011575466469888782499_" gradientUnits="userSpaceOnUse" x1="180.854" y1="513.111" x2="233.4128" y2="513.111">
			<stop  offset="0" style="stop-color:#E6321F"/>
			<stop  offset="0.0524" style="stop-color:#C93730"/>
			<stop  offset="0.1069" style="stop-color:#B3393C"/>
			<stop  offset="0.1627" style="stop-color:#A53A42"/>
			<stop  offset="0.2199" style="stop-color:#9C3A45"/>
			<stop  offset="0.2809" style="stop-color:#993A46"/>
			<stop  offset="0.6685" style="stop-color:#944996"/>
			<stop  offset="0.8876" style="stop-color:#5F4998"/>
			<stop  offset="1" style="stop-color:#384798"/>
		</linearGradient>
		<path style="fill:url(#SVGID_00000015333935982870211240000011575466469888782499_);" d="M233.41,586.11c-17.49,0-34.87,0-52.56,0
			c0-48.75,0-97.21,0-145.99c17.52,0,34.75,0,52.56,0C233.41,488.69,233.41,537.29,233.41,586.11z"/>
		
			<linearGradient id="SVGID_00000000195116114985960780000000927897178102332590_" gradientUnits="userSpaceOnUse" x1="176.5052" y1="371.5475" x2="242.9149" y2="371.5475">
			<stop  offset="0" style="stop-color:#E6321F"/>
			<stop  offset="0.0524" style="stop-color:#C93730"/>
			<stop  offset="0.1069" style="stop-color:#B3393C"/>
			<stop  offset="0.1627" style="stop-color:#A53A42"/>
			<stop  offset="0.2199" style="stop-color:#9C3A45"/>
			<stop  offset="0.2809" style="stop-color:#993A46"/>
			<stop  offset="0.6685" style="stop-color:#944996"/>
			<stop  offset="0.8876" style="stop-color:#5F4998"/>
			<stop  offset="1" style="stop-color:#384798"/>
		</linearGradient>
		<path style="fill:url(#SVGID_00000000195116114985960780000000927897178102332590_);" d="M209.43,338.73
			c19.08,0.07,33.53,14.19,33.48,32.71c-0.05,17.76-15.31,32.89-33.22,32.93c-18.6,0.04-33.31-14.91-33.19-33.75
			C176.62,353.32,191.75,338.66,209.43,338.73z"/>
	</g>
	<g>
		
			<linearGradient id="SVGID_00000088837567655675049050000002098289551391684509_" gradientUnits="userSpaceOnUse" x1="87.4629" y1="463.4543" x2="519.1397" y2="463.4543">
			<stop  offset="0" style="stop-color:#983A8E"/>
			<stop  offset="0.1282" style="stop-color:#9F4392"/>
			<stop  offset="0.2809" style="stop-color:#A14794"/>
			<stop  offset="0.6685" style="stop-color:#E73172"/>
			<stop  offset="0.9997" style="stop-color:#E61C5D"/>
		</linearGradient>
		<path style="fill:url(#SVGID_00000088837567655675049050000002098289551391684509_);" d="M303.04,247.52
			c55.94,0,111.89,0.12,167.83-0.08c16.35-0.06,30.05,4.76,39.93,18.36c6.02,8.29,8.13,17.74,8.13,27.78
			c0.05,69.26,0.1,138.53,0.12,207.79c0.01,42.62-0.33,85.25,0.08,127.87c0.27,28.24-22.68,50.34-50.04,50.21
			c-110.72-0.51-221.45-0.65-332.17,0.01c-28.3,0.17-44.68-20.22-48.77-39.29c-0.55-2.57-0.69-5.28-0.69-7.92
			c0.01-113.22,0.01-226.44,0.13-339.66c0.02-22.63,13.76-39.57,35.71-44.13c4.82-1,9.93-0.87,14.91-0.88
			c54.95-0.06,109.89-0.03,164.84-0.03C303.04,247.54,303.04,247.53,303.04,247.52z M277.82,343.68c63.12,0,125.66,0,188.33,0
			c0-14.5,0-28.56,0-43.03c-108.94,0-217.55,0-326.13,0c0,109.11,0,217.78,0,326.69c46.05,0,91.7,0,137.84,0
			c0-62.61,0-124.81,0-187.22c17.72,0,34.94,0,52.95,0c0,62.6,0,124.91,0,187.22c14,0,27.21,0,40.88,0c0-62.63,0-124.83,0-187.26
			c18.01,0,35.54,0,53.64,0c0,62.65,0,124.98,0,187.28c13.95,0,27.33,0,40.69,0c0-76.9,0-153.4,0-230.52c-62.92,0-125.42,0-188.2,0
			C277.82,378.98,277.82,361.75,277.82,343.68z"/>
		<path class="st4" d="M234.41,586.11c-17.49,0-34.87,0-52.56,0c0-48.75,0-97.21,0-145.99c17.52,0,34.75,0,52.56,0
			C234.41,488.69,234.41,537.29,234.41,586.11z"/>
		<path class="st4" d="M210.43,338.73c19.08,0.07,33.53,14.19,33.48,32.71c-0.05,17.76-15.31,32.89-33.22,32.93
			c-18.6,0.04-33.31-14.91-33.19-33.75C177.62,353.32,192.75,338.66,210.43,338.73z"/>
	</g>
</g>
</svg>
