<svg width="16" height="21" viewBox="0 0 16 21" fill="none" xmlns="http://www.w3.org/2000/svg">
<path fill-rule="evenodd" clip-rule="evenodd" d="M1 18.1667H15C15.2652 18.1667 15.5196 18.2676 15.7071 18.4473C15.8946 18.6271 16 18.8708 16 19.125C16 19.3792 15.8946 19.6229 15.7071 19.8026C15.5196 19.9824 15.2652 20.0833 15 20.0833H1C0.734784 20.0833 0.48043 19.9824 0.292893 19.8026C0.105357 19.6229 0 19.3792 0 19.125C0 18.8708 0.105357 18.6271 0.292893 18.4473C0.48043 18.2676 0.734784 18.1667 1 18.1667ZM0 13.375L10 3.79166L13 6.66666L3 16.25H0V13.375ZM11 2.83332L13 0.916656L16 3.79166L13.999 5.70928L11 2.83332Z" fill="#F8F8F8"/>
</svg>
