<svg width="18" height="18" viewBox="0 0 18 18" fill="none" xmlns="http://www.w3.org/2000/svg">
<path d="M16.2495 1.17166L16.7165 1.63875C17.3602 2.28316 17.2628 3.42554 16.4972 4.19029L6.86504 13.8225L3.74429 14.9641C3.35241 15.1082 2.97083 14.9213 2.89324 14.5485C2.86703 14.4132 2.87937 14.2733 2.92887 14.1447L4.09262 10.997L13.6979 1.39095C14.4635 0.626205 15.6058 0.527247 16.2495 1.17166ZM6.44466 2.12958C6.54862 2.12958 6.65157 2.15006 6.74762 2.18984C6.84367 2.22963 6.93094 2.28794 7.00445 2.36145C7.07797 2.43497 7.13628 2.52224 7.17607 2.61829C7.21585 2.71434 7.23633 2.81728 7.23633 2.92125C7.23633 3.02521 7.21585 3.12815 7.17607 3.2242C7.13628 3.32025 7.07797 3.40753 7.00445 3.48104C6.93094 3.55455 6.84367 3.61287 6.74762 3.65265C6.65157 3.69244 6.54862 3.71291 6.44466 3.71291H3.27799C2.85807 3.71291 2.45534 3.87973 2.15841 4.17666C1.86148 4.47359 1.69466 4.87632 1.69466 5.29625V14.7962C1.69466 15.2162 1.86148 15.6189 2.15841 15.9158C2.45534 16.2128 2.85807 16.3796 3.27799 16.3796H12.778C13.1979 16.3796 13.6006 16.2128 13.8976 15.9158C14.1945 15.6189 14.3613 15.2162 14.3613 14.7962V11.6296C14.3613 11.4196 14.4447 11.2183 14.5932 11.0698C14.7417 10.9213 14.943 10.8379 15.153 10.8379C15.363 10.8379 15.5643 10.9213 15.7128 11.0698C15.8613 11.2183 15.9447 11.4196 15.9447 11.6296V14.7962C15.9447 15.6361 15.611 16.4416 15.0172 17.0354C14.4233 17.6293 13.6178 17.9629 12.778 17.9629H3.27799C2.43814 17.9629 1.63269 17.6293 1.03882 17.0354C0.444958 16.4416 0.111328 15.6361 0.111328 14.7962V5.29625C0.111328 4.45639 0.444958 3.65094 1.03882 3.05708C1.63269 2.46321 2.43814 2.12958 3.27799 2.12958H6.44466Z" fill="#F8F8F8"/>
</svg>
